<?xml version="1.0" standalone="no"?>
<!DOCTYPE svg PUBLIC "-//W3C//DTD SVG 20010904//EN"
 "http://www.w3.org/TR/2001/REC-SVG-20010904/DTD/svg10.dtd">
<svg version="1.0" xmlns="http://www.w3.org/2000/svg"
 width="362.000000pt" height="420.000000pt" viewBox="0 0 362.000000 420.000000"
 preserveAspectRatio="xMidYMid meet">

<g transform="translate(0.000000,420.000000) scale(0.100000,-0.100000)"
fill="#000000" stroke="none">
<path d="M0 2100 l0 -2100 1810 0 1810 0 0 2100 0 2100 -1810 0 -1810 0 0
-2100z m1919 1567 c6 -8 8 -17 5 -20 -4 -3 -6 -51 -5 -106 1 -61 -2 -102 -8
-106 -18 -10 -12 -25 9 -25 14 0 20 -7 20 -21 0 -17 -5 -20 -32 -17 -27 2 -33
7 -32 26 1 27 -14 31 -116 31 -41 0 -84 1 -94 3 -13 2 -24 -6 -32 -22 -15 -29
-43 -52 -55 -44 -16 9 -10 42 8 46 13 2 17 15 19 58 1 30 6 79 11 107 6 35 6
56 -1 63 -7 7 -6 14 2 22 8 8 14 4 24 -18 6 -16 13 -31 14 -32 4 -5 64 -13 99
-13 16 0 33 -5 37 -12 5 -8 11 -8 16 -2 4 6 16 15 27 21 11 6 21 23 23 37 3
22 12 30 43 36 4 0 12 -5 18 -12z m-54 -332 l30 -13 -45 -3 c-57 -3 -93 -3
-154 -1 -46 2 -48 3 -30 17 25 19 158 19 199 0z m-65 -150 c-20 -25 -5 -28 52
-11 43 12 55 13 68 2 25 -22 157 -37 308 -35 l141 1 94 -50 c184 -98 218 -131
238 -235 6 -33 18 -60 34 -75 25 -23 33 -56 16 -66 -13 -8 -34 21 -28 38 4 10
-4 19 -23 27 -24 11 -27 16 -19 36 11 29 -4 69 -29 77 -10 4 -32 0 -48 -9 -16
-8 -46 -15 -67 -15 -54 0 -43 -23 16 -34 55 -10 62 -26 13 -26 -63 0 -46 -17
37 -38 50 -12 81 -25 79 -32 -1 -6 7 -14 18 -17 15 -4 19 -11 14 -25 -5 -16
-3 -19 7 -12 11 6 12 5 2 -7 -6 -8 -9 -27 -6 -42 4 -21 8 -25 14 -15 7 10 9 9
9 -4 0 -10 -7 -18 -15 -18 -8 0 -15 -6 -15 -12 -1 -20 -38 -60 -50 -53 -5 3
-10 2 -10 -4 0 -5 -12 -14 -27 -19 l-28 -10 26 -1 c55 -2 91 12 108 40 10 16
20 26 24 23 9 -9 -4 -36 -30 -64 -22 -24 -23 -30 -23 -217 l0 -193 25 -22 c14
-12 25 -32 25 -44 0 -21 -2 -20 -32 10 l-33 33 0 199 0 198 -28 10 c-19 7 -33
7 -45 0 -15 -10 -17 -33 -20 -169 -1 -92 -7 -164 -13 -171 -6 -7 -22 -14 -35
-16 -37 -4 -34 -21 6 -34 32 -11 33 -12 11 -19 -12 -4 -61 -10 -107 -15 -96
-8 -122 -20 -48 -21 27 0 56 -2 64 -3 8 -2 42 -6 75 -10 50 -6 118 -22 134
-33 7 -5 9 -133 2 -133 -4 0 -14 -13 -24 -29 -16 -28 -16 -30 0 -33 11 -2 3
-10 -24 -23 -22 -10 -45 -31 -51 -45 -6 -14 -12 -101 -13 -205 -2 -207 -5
-272 -13 -335 -4 -25 -9 -93 -13 -152 -5 -98 -8 -107 -29 -119 -27 -14 -33
-56 -9 -65 10 -4 13 -13 10 -25 -5 -16 1 -18 46 -21 l51 -3 -19 -23 c-10 -13
-37 -28 -58 -33 -151 -33 -207 -39 -397 -47 -117 -5 -231 -9 -252 -9 -25 0
-42 -6 -48 -17 -13 -24 -165 -24 -170 0 -2 13 -16 16 -68 16 -36 0 -77 -5 -92
-11 -23 -9 -28 -8 -28 4 0 11 -12 15 -42 16 -24 0 -51 2 -60 4 -10 2 -18 -2
-18 -8 0 -7 -5 -6 -10 3 -7 11 -12 12 -18 3 -5 -8 -18 -9 -42 -3 -19 4 -30 9
-25 11 17 4 -89 14 -112 10 -13 -2 -23 -7 -23 -12 0 -26 105 -45 295 -53 445
-20 444 -20 835 27 19 3 96 9 170 15 74 6 143 14 153 18 13 5 20 1 23 -13 4
-15 12 -19 30 -15 13 2 35 1 48 -2 22 -5 24 -10 19 -43 -5 -31 -4 -35 10 -30
12 5 19 -3 26 -30 9 -32 7 -43 -15 -80 -14 -24 -31 -43 -39 -43 -8 0 -15 -5
-15 -11 0 -6 -18 -29 -41 -51 -94 -92 -272 -135 -629 -153 -87 -4 -120 -3
-110 4 13 9 13 11 -2 11 -9 0 -18 5 -20 11 -9 27 -218 15 -218 -13 0 -4 12 -9
28 -11 16 -2 10 -4 -15 -4 -24 0 -43 5 -43 10 0 5 -7 4 -15 -3 -14 -11 -19 -7
-16 13 2 14 -17 7 -23 -8 -3 -10 -14 -14 -28 -11 -13 3 -63 8 -113 11 -90 6
-269 35 -348 56 -76 20 -141 61 -208 131 -74 77 -79 90 -79 210 0 75 1 79 20
73 14 -4 20 -2 20 8 0 8 10 18 23 22 21 7 20 8 -8 12 -45 7 -49 17 -21 49 14
16 26 23 26 16 0 -8 7 -29 16 -48 14 -29 21 -34 53 -34 l36 0 -33 18 -33 17
-6 470 -6 470 -23 31 c-13 17 -24 38 -24 47 0 10 -6 14 -14 11 -8 -3 -16 4
-20 18 -10 38 -7 198 5 219 13 26 49 62 55 56 9 -8 -8 -37 -22 -37 -7 0 -18
-9 -24 -19 -14 -27 4 -36 32 -17 12 9 41 16 63 17 22 0 49 4 60 9 18 8 17 9
-7 9 -46 1 -81 19 -74 38 9 22 -3 55 -18 50 -10 -4 -13 33 -15 161 -2 164 -2
166 -29 201 -26 34 -27 42 -27 147 0 107 1 111 29 144 15 19 38 34 50 35 16 0
21 6 21 25 0 20 -5 25 -22 23 -19 -2 -21 0 -14 20 15 40 46 85 72 105 13 11
80 48 149 82 l125 63 212 -2 c205 -2 212 -1 223 19 9 16 15 18 30 10 27 -14
100 -21 100 -9 0 5 -7 9 -15 9 -8 0 -15 5 -15 10 0 6 16 10 36 10 32 0 35 -2
24 -15z m471 -2 c13 -17 13 -17 -6 -3 -11 8 -22 16 -24 17 -2 2 0 3 6 3 6 0
17 -8 24 -17z m49 -23 c8 -5 11 -10 5 -10 -5 0 -17 5 -25 10 -8 5 -10 10 -5
10 6 0 17 -5 25 -10z m378 -1482 c-2 -86 -2 -88 -5 -23 -2 38 -9 75 -15 83 -9
10 -8 16 3 23 8 5 15 9 17 9 1 0 1 -42 0 -92z m-1 -500 c-2 -18 -4 -6 -4 27 0
33 2 48 4 33 2 -15 2 -42 0 -60z m0 -110 c-3 -7 -5 -2 -5 12 0 14 2 19 5 13 2
-7 2 -19 0 -25z m53 -321 c0 -16 -6 -18 -32 -15 -20 3 -42 -1 -55 -10 -15 -9
-23 -10 -23 -3 0 6 5 11 11 11 6 0 8 8 5 18 -4 12 1 26 14 37 11 10 20 25 20
34 1 23 60 -48 60 -72z m-923 -513 c-3 -3 -12 -4 -19 -1 -8 3 -5 6 6 6 11 1
17 -2 13 -5z"/>
<path d="M1818 3443 c7 -3 16 -2 19 1 4 3 -2 6 -13 5 -11 0 -14 -3 -6 -6z"/>
<path d="M2398 3073 c7 -3 16 -2 19 1 4 3 -2 6 -13 5 -11 0 -14 -3 -6 -6z"/>
<path d="M2420 3052 c0 -12 58 -27 67 -18 9 9 0 15 -35 22 -20 4 -32 2 -32 -4z"/>
<path d="M2588 2953 c7 -3 16 -2 19 1 4 3 -2 6 -13 5 -11 0 -14 -3 -6 -6z"/>
<path d="M1118 2878 c-11 -5 -18 -13 -16 -19 3 -9 146 -11 548 -10 300 1 547
4 549 7 3 2 0 8 -5 13 -5 6 -39 6 -84 1 -102 -12 -558 -12 -617 0 -59 12 -347
18 -375 8z"/>
<path d="M1105 2100 c8 -13 125 -13 145 0 10 7 -11 10 -68 10 -53 0 -81 -4
-77 -10z"/>
<path d="M1293 2103 c9 -2 23 -2 30 0 6 3 -1 5 -18 5 -16 0 -22 -2 -12 -5z"/>
<path d="M1090 2040 c53 -4 99 -4 105 1 5 5 -35 8 -95 7 l-105 -1 95 -7z"/>
<path d="M1775 1670 c-27 -7 -28 -8 -5 -8 14 0 34 3 45 8 25 11 2 11 -40 0z"/>
<path d="M1850 1670 c8 -5 26 -10 39 -10 32 0 24 6 -19 14 -25 4 -31 3 -20 -4z"/>
<path d="M1654 1634 c-84 -44 -165 -133 -145 -158 6 -7 9 -20 7 -27 -2 -8 -7
-47 -11 -86 -5 -63 -4 -73 10 -73 9 0 13 -5 9 -11 -3 -6 -14 -9 -24 -6 -15 4
-16 1 -7 -23 9 -23 13 -25 32 -17 26 13 33 62 10 71 -13 5 -14 16 -9 58 10 77
30 116 85 169 45 43 79 61 164 83 11 3 0 3 -25 0 -62 -7 -130 -48 -182 -111
-22 -27 -28 -30 -38 -18 -25 30 88 133 175 161 24 8 32 13 19 13 -12 1 -43
-11 -70 -25z"/>
<path d="M1935 1650 c11 -5 27 -9 35 -9 9 0 8 4 -5 9 -11 5 -27 9 -35 9 -9 0
-8 -4 5 -9z"/>
<path d="M2169 1642 c7 -6 10 -15 6 -21 -5 -9 -11 -9 -23 1 -14 11 -15 10 -9
-5 4 -10 7 -23 7 -28 0 -6 5 -7 10 -4 7 4 8 -8 4 -34 -5 -32 -3 -41 8 -41 14
0 16 9 21 105 2 22 -3 30 -18 33 -15 2 -17 1 -6 -6z"/>
<path d="M2097 1634 c-3 -3 -1 -20 4 -37 5 -20 5 -35 -1 -41 -18 -18 -12 -66
8 -66 16 -1 16 -1 0 -11 -20 -11 -58 8 -58 29 0 7 5 10 10 7 6 -3 10 2 10 12
0 24 -132 94 -175 92 -24 0 -18 -3 24 -15 57 -15 84 -31 76 -44 -3 -4 4 -10
15 -13 28 -7 25 -34 -7 -54 -16 -9 -30 -18 -32 -19 -1 -2 0 -7 3 -13 4 -6 18
-6 36 -1 17 5 30 5 30 0 0 -5 -16 -12 -37 -16 -28 -5 -39 -3 -49 10 -7 10 -15
17 -19 16 -4 -1 -13 9 -19 21 -6 12 -18 24 -26 27 -12 4 -13 2 -2 -9 6 -7 12
-26 12 -41 0 -18 5 -28 15 -28 8 0 15 -5 15 -11 0 -7 -10 -9 -25 -7 -17 4 -25
1 -25 -8 0 -16 55 -19 65 -4 3 6 22 10 40 10 19 0 50 8 70 17 49 23 66 11 87
-63 9 -32 17 -49 17 -37 1 12 -6 43 -15 69 -18 55 -12 89 11 58 9 -11 14 -14
15 -6 0 15 40 32 89 38 43 6 71 21 71 39 0 19 -8 19 -26 0 -26 -25 -63 -29
-84 -10 -19 17 -20 17 -20 -2 0 -19 -17 -33 -41 -33 -5 0 -9 15 -9 33 0 18 -7
42 -15 53 -8 10 -15 27 -15 36 0 18 -14 31 -23 22z m28 -124 c3 -5 -1 -10 -9
-10 -9 0 -16 5 -16 10 0 6 4 10 9 10 6 0 13 -4 16 -10z"/>
<path d="M1838 1623 c7 -3 16 -2 19 1 4 3 -2 6 -13 5 -11 0 -14 -3 -6 -6z"/>
<path d="M2037 1601 c35 -34 43 -37 43 -18 0 6 -17 20 -38 30 l-37 18 32 -30z"/>
<path d="M2293 1618 c8 -21 -3 -30 -20 -17 -10 9 -17 8 -28 -1 -17 -14 -20
-56 -5 -65 6 -3 10 5 10 19 0 27 15 43 25 26 3 -5 13 -10 21 -10 17 0 19 46 2
56 -7 5 -9 2 -5 -8z"/>
<path d="M1975 1519 c-4 -6 -4 -13 -1 -16 8 -8 36 5 36 17 0 13 -27 13 -35 -1z"/>
<path d="M1828 1503 c7 -3 16 -2 19 1 4 3 -2 6 -13 5 -11 0 -14 -3 -6 -6z"/>
<path d="M1772 1429 c-2 -67 -1 -70 18 -64 11 3 20 2 20 -3 0 -6 -11 -13 -24
-16 -16 -4 -25 -15 -30 -38 -13 -64 -58 -86 -96 -48 -11 11 -20 15 -20 10 0
-6 11 -22 25 -35 13 -14 20 -25 15 -25 -6 0 -10 -4 -10 -10 0 -5 5 -10 10 -10
9 0 21 9 72 57 9 8 20 29 24 45 3 18 14 33 25 35 23 6 49 62 49 104 0 16 7 32
18 38 13 7 14 13 6 21 -15 15 -44 -24 -44 -57 0 -30 -20 -40 -21 -11 -2 29 -2
29 6 53 6 16 5 17 -4 5 -9 -13 -11 -13 -11 3 0 9 -6 17 -12 17 -9 0 -14 -22
-16 -71z"/>
<path d="M1717 1450 c-16 -24 -12 -60 8 -60 20 0 37 27 33 51 -4 30 -23 34
-41 9z m24 -43 c-8 -8 -11 -7 -11 4 0 9 3 19 7 23 4 4 9 2 11 -4 3 -7 -1 -17
-7 -23z"/>
<path d="M1427 1436 c10 -14 22 -21 27 -16 5 5 2 15 -7 24 -25 25 -40 19 -20
-8z"/>
<path d="M1620 1449 c-24 -7 -24 -7 -2 -8 19 -1 22 -6 22 -41 0 -35 3 -40 22
-40 46 0 1 -19 -52 -22 -53 -3 -54 -2 -61 27 l-7 30 -1 -27 c-1 -38 33 -71 62
-62 12 4 31 8 42 10 11 1 34 9 50 18 17 9 36 16 43 16 6 0 12 5 12 10 0 6 -8
10 -18 10 -10 0 -24 6 -31 13 -11 10 -14 10 -18 0 -10 -27 -23 -11 -23 26 0
45 -5 51 -40 40z"/>
<path d="M1588 1417 c-25 -19 -31 -52 -13 -67 13 -11 18 -11 28 0 9 10 9 11 0
6 -9 -5 -13 0 -13 13 0 23 16 37 22 19 3 -8 7 -6 11 4 9 24 -15 41 -35 25z"/>
<path d="M1467 1400 c-17 -23 -19 -24 -31 -7 -7 9 -15 17 -18 17 -3 0 -11 -42
-18 -92 -14 -107 -30 -152 -58 -167 -33 -17 -74 -13 -99 11 -32 30 -29 9 3
-26 23 -24 32 -27 63 -22 22 3 46 17 62 35 25 27 31 46 52 189 1 7 7 14 12 15
6 1 13 -33 16 -79 3 -44 11 -89 18 -100 11 -17 11 -15 5 11 -3 17 -8 61 -11
98 -4 55 -1 72 12 87 9 10 15 27 13 37 -3 16 -5 15 -21 -7z"/>
<path d="M2191 1359 c-1 -20 -4 -64 -7 -98 -7 -59 -6 -61 17 -62 15 0 18 -3 9
-6 -28 -10 -50 -36 -50 -58 0 -59 -89 -76 -103 -20 -2 11 -3 6 -1 -12 2 -28
-3 -37 -38 -64 -22 -18 -68 -40 -102 -50 -33 -10 -51 -18 -39 -18 33 -1 115
32 155 63 35 26 68 34 68 16 0 -5 -24 -27 -54 -49 -94 -69 -220 -91 -324 -57
-47 16 -62 32 -46 49 3 3 24 -1 46 -9 22 -8 48 -14 57 -13 9 0 -6 7 -34 16
-27 8 -54 18 -58 23 -16 15 5 52 35 62 20 7 35 22 45 46 l14 35 16 -23 c14
-20 21 -22 67 -16 28 3 69 12 91 20 34 12 41 19 48 52 4 21 14 42 22 47 21 12
18 27 -5 27 -19 0 -24 -10 -32 -65 -2 -15 -11 -20 -33 -20 -28 0 -30 2 -26 35
9 77 8 85 -19 87 -16 1 -18 0 -7 -3 23 -7 16 -30 -8 -26 -13 3 -16 -1 -11 -13
3 -9 6 -19 6 -21 0 -3 5 -2 10 1 7 4 8 -8 4 -34 -6 -38 -5 -41 17 -42 l24 0
-24 -10 c-16 -6 -28 -6 -35 1 -15 15 -26 12 -26 -6 0 -11 -8 -14 -27 -12 -24
3 -29 8 -31 37 -3 25 -6 31 -12 20 -7 -11 -12 -11 -22 -1 -6 6 -19 12 -27 12
-12 0 -12 -3 -3 -12 31 -31 0 -98 -45 -98 -22 0 -25 -6 -38 -97 -4 -27 -12
-43 -21 -43 -16 0 -19 -16 -3 -25 5 -4 18 0 27 8 15 13 22 13 55 2 130 -45
266 -13 382 89 71 63 83 76 89 106 4 20 14 34 31 40 15 6 25 17 25 29 0 11 12
23 31 31 33 14 52 49 42 77 -8 23 -33 53 -45 53 -4 0 1 -9 12 -20 11 -11 20
-29 20 -40 0 -28 -37 -62 -63 -58 -19 3 -23 11 -29 67 -8 76 -16 99 -17 50z"/>
<path d="M1350 1325 c0 -9 -11 -19 -23 -24 -32 -13 -77 -68 -77 -95 0 -22 17
-46 32 -46 4 0 3 11 -4 25 -15 32 8 68 62 95 40 21 57 60 25 60 -8 0 -15 -7
-15 -15z"/>
<path d="M1679 1312 c-14 -12 -20 -25 -16 -36 9 -22 36 -31 50 -17 9 10 9 12
-3 9 -8 -2 -15 4 -15 12 0 8 10 16 23 18 27 4 30 32 3 32 -10 0 -29 -8 -42
-18z"/>
<path d="M2239 1310 c-11 -11 -14 -23 -8 -31 7 -11 13 -10 30 7 12 12 18 27
15 33 -9 15 -18 13 -37 -9z"/>
<path d="M2122 1288 c-16 -16 -15 -43 2 -57 19 -16 46 11 46 45 0 26 -27 33
-48 12z m25 -40 c-3 -8 -6 -5 -6 6 -1 11 2 17 5 13 3 -3 4 -12 1 -19z"/>
<path d="M2050 1269 c7 -11 9 -27 6 -36 -4 -9 1 -17 14 -20 11 -3 17 -9 14
-14 -8 -13 -42 -11 -47 4 -4 8 -6 7 -6 -3 -1 -9 7 -22 17 -31 16 -14 21 -14
52 0 63 29 68 35 35 41 -23 4 -31 12 -36 35 -6 28 -7 28 -9 5 -2 -21 -3 -22
-7 -5 -6 24 -22 45 -35 45 -5 0 -4 -9 2 -21z"/>
<path d="M1593 1239 c9 -5 17 -20 17 -33 0 -26 -24 -51 -39 -41 -7 3 -8 0 -5
-9 7 -19 18 -20 45 -6 36 20 20 100 -20 100 -13 -1 -13 -2 2 -11z"/>
<path d="M1785 1230 c3 -5 11 -10 16 -10 6 0 7 5 4 10 -3 6 -11 10 -16 10 -6
0 -7 -4 -4 -10z"/>
<path d="M1843 1233 c4 -3 0 -14 -9 -24 -18 -20 -16 -60 4 -67 8 -2 10 2 6 13
-4 9 1 24 11 35 18 20 14 50 -6 50 -7 0 -9 -3 -6 -7z"/>
<path d="M1528 1209 c-10 -5 -18 -22 -18 -37 0 -21 9 -33 39 -52 67 -41 78
-91 32 -142 -34 -38 -87 -44 -121 -13 -17 15 -20 15 -20 3 0 -41 81 -61 129
-32 17 10 31 22 31 26 0 4 7 8 15 8 8 0 15 8 15 18 0 9 3 27 6 40 5 18 -4 33
-45 73 -35 34 -51 58 -51 76 0 22 4 25 25 20 16 -3 24 0 22 7 -5 15 -38 18
-59 5z"/>
<path d="M1652 1165 c0 -16 2 -22 5 -12 2 9 2 23 0 30 -3 6 -5 -1 -5 -18z"/>
<path d="M1687 1162 c-21 -23 -21 -36 -2 -52 13 -11 15 -8 15 14 0 23 3 26 21
21 18 -6 20 -5 10 14 -14 26 -23 26 -44 3z"/>
<path d="M2098 1154 c-16 -8 -28 -23 -28 -34 0 -11 2 -20 4 -20 2 0 11 -3 19
-6 11 -4 16 2 19 18 2 15 9 23 21 22 10 -1 17 5 17 17 0 23 -15 24 -52 3z"/>
<path d="M1482 1115 c1 -14 6 -25 11 -25 5 0 -1 -12 -12 -26 -25 -32 -27 -67
-5 -85 15 -12 16 -11 10 7 -7 24 11 74 28 74 5 0 23 -12 38 -27 19 -18 28 -22
28 -12 0 8 -9 20 -20 27 -23 14 -27 37 -5 28 27 -10 16 2 -30 33 l-45 30 2
-24z"/>
<path d="M1085 891 c-4 -7 -1 -19 6 -27 11 -14 43 -15 236 -11 208 5 225 4
241 -13 15 -16 67 -21 92 -10 3 1 9 2 14 1 5 -1 13 4 18 11 6 11 10 11 16 0 5
-7 16 -10 25 -6 10 3 17 1 17 -5 0 -9 17 -10 58 -6 31 3 66 6 77 6 81 -1 110
2 116 10 4 6 9 4 12 -6 5 -13 15 -15 44 -9 21 4 41 12 45 17 3 6 21 11 40 11
23 1 34 6 36 18 3 17 -24 18 -435 18 -241 0 -486 2 -544 6 -75 4 -109 3 -114
-5z"/>
<path d="M1683 791 c-10 -10 -11 -17 -3 -26 8 -10 44 -13 141 -12 107 2 129 5
129 17 0 12 2 13 9 1 10 -16 31 -6 31 15 0 10 -12 14 -40 14 -25 0 -40 -5 -40
-12 0 -10 -2 -10 -9 0 -12 20 -199 22 -218 3z m37 -11 c0 -5 -7 -10 -16 -10
-8 0 -12 5 -9 10 3 6 10 10 16 10 5 0 9 -4 9 -10z m40 6 c0 -3 -4 -8 -10 -11
-5 -3 -10 -1 -10 4 0 6 5 11 10 11 6 0 10 -2 10 -4z"/>
<path d="M2497 774 c-11 -11 3 -24 18 -18 8 4 12 10 9 15 -6 11 -18 12 -27 3z"/>
<path d="M1748 514 c-2 -1 -24 -4 -48 -5 -25 -1 -51 -7 -57 -12 -7 -5 -20 -7
-28 -3 -8 3 -28 0 -43 -6 -15 -6 -33 -10 -39 -9 -7 1 -13 -3 -13 -9 0 -5 -13
-10 -28 -10 -15 0 -34 -6 -41 -12 -11 -11 -12 -10 -6 2 8 13 6 13 -8 2 -9 -8
-25 -11 -36 -7 -10 3 -22 1 -26 -4 -3 -7 0 -8 9 -5 9 3 16 1 16 -5 0 -6 -5
-11 -11 -11 -5 0 -8 -4 -5 -9 3 -5 15 -7 25 -4 10 3 22 0 25 -6 4 -5 13 -8 21
-4 8 3 15 0 15 -6 0 -6 13 -11 28 -11 15 0 33 -5 38 -10 6 -6 35 -13 64 -15
29 -2 58 -9 63 -14 15 -15 47 -14 47 1 0 9 3 9 11 1 6 -6 18 -9 25 -6 8 3 14
-1 14 -8 0 -11 3 -11 10 1 7 10 12 12 18 4 11 -17 123 -3 150 18 6 6 12 7 12
3 0 -4 6 -2 14 4 7 6 21 9 30 5 12 -4 16 0 16 15 0 17 6 21 35 21 19 0 35 5
35 11 0 5 -4 7 -10 4 -5 -3 -10 2 -10 12 0 13 -2 15 -9 5 -6 -10 -10 -10 -21
2 -7 9 -16 14 -20 11 -5 -3 -11 -1 -15 5 -3 5 -15 10 -25 10 -10 0 -20 5 -22
11 -2 6 -19 13 -38 14 -19 2 -37 5 -40 6 -3 1 -8 1 -12 0 -5 0 -8 4 -8 10 0 6
-6 9 -14 6 -7 -3 -30 -2 -49 3 -20 4 -37 6 -39 4z"/>
</g>
</svg>
