<?xml version="1.0" standalone="no"?>
<!DOCTYPE svg PUBLIC "-//W3C//DTD SVG 20010904//EN"
 "http://www.w3.org/TR/2001/REC-SVG-20010904/DTD/svg10.dtd">
<svg version="1.0" xmlns="http://www.w3.org/2000/svg"
 width="414.000000pt" height="718.000000pt" viewBox="0 0 414.000000 718.000000"
 preserveAspectRatio="xMidYMid meet">

<g transform="translate(0.000000,718.000000) scale(0.100000,-0.100000)"
fill="#000000" stroke="none">
<path d="M0 3590 l0 -3590 2070 0 2070 0 0 3590 0 3590 -2070 0 -2070 0 0
-3590z m2340 3361 c0 -5 -6 -11 -14 -14 -9 -4 -12 -14 -9 -26 3 -12 1 -21 -5
-21 -6 0 -8 -9 -5 -20 4 -14 0 -20 -11 -20 -23 0 -20 -21 5 -27 12 -4 22 -17
26 -34 3 -16 11 -29 19 -29 7 0 19 -9 28 -21 18 -26 4 -74 -25 -90 -10 -5 -19
-19 -19 -29 0 -11 -5 -29 -12 -39 -15 -25 9 -107 40 -131 25 -20 30 -68 10
-99 -9 -15 -9 -63 0 -209 10 -160 15 -196 32 -229 23 -41 97 -113 117 -113 6
0 16 -6 20 -13 4 -7 40 -23 78 -36 78 -26 102 -36 223 -92 45 -21 82 -43 82
-49 0 -17 72 -50 225 -101 33 -11 74 -26 90 -34 47 -21 128 -56 155 -67 58
-25 95 -43 98 -50 2 -5 11 -8 21 -8 38 0 141 -143 141 -197 0 -12 5 -25 10
-28 6 -3 10 -18 10 -32 0 -16 18 -49 45 -84 57 -73 69 -103 55 -142 -13 -39
-13 -188 1 -224 16 -42 3 -83 -41 -132 l-40 -44 0 -418 c0 -438 1 -445 46
-500 20 -25 21 -38 20 -192 -1 -91 -4 -169 -8 -173 -5 -4 -8 -15 -8 -25 0 -9
-15 -32 -32 -51 l-33 -33 -4 -780 -3 -780 26 -24 c14 -14 26 -32 26 -42 0 -10
5 -21 10 -24 12 -8 13 -139 1 -182 -6 -19 -5 -77 1 -150 8 -89 7 -134 -2 -183
-15 -74 -68 -192 -105 -232 -14 -15 -25 -32 -25 -37 0 -5 -9 -16 -20 -24 -12
-8 -48 -40 -80 -71 -33 -31 -67 -56 -75 -56 -8 0 -15 -4 -15 -10 0 -5 -5 -10
-12 -10 -6 0 -26 -11 -44 -25 -18 -14 -38 -25 -43 -25 -6 0 -19 -4 -29 -9 -46
-24 -112 -51 -162 -66 -30 -10 -64 -22 -75 -26 -32 -14 -137 -39 -162 -39 -12
0 -25 -5 -28 -10 -3 -6 -23 -10 -44 -10 -21 0 -41 -3 -45 -7 -24 -25 -549 -77
-741 -74 -205 3 -370 12 -380 22 -5 5 -38 9 -75 10 -36 0 -90 5 -120 10 -30 5
-80 14 -110 19 -30 4 -77 13 -105 19 -27 6 -75 16 -105 22 -30 6 -59 15 -65
20 -5 5 -19 9 -32 9 -13 0 -31 4 -41 9 -43 23 -92 41 -111 41 -12 0 -21 5 -21
10 0 6 -11 10 -25 10 -14 0 -25 5 -25 10 0 6 -9 10 -19 10 -11 0 -22 4 -26 9
-3 5 -19 12 -35 16 -17 4 -30 11 -30 16 0 5 -7 9 -15 9 -8 0 -15 5 -15 10 0 6
-6 10 -12 10 -7 0 -27 13 -44 28 -18 15 -46 38 -64 52 -143 112 -234 302 -220
460 5 65 2 275 -5 324 -4 28 -3 57 3 70 60 124 61 128 63 251 3 184 0 275 -17
461 -9 94 -14 234 -12 310 3 121 6 145 26 184 22 45 22 46 22 487 -1 336 -4
443 -13 444 -9 0 -9 2 1 6 13 5 17 53 4 53 -4 0 -20 24 -34 53 l-26 52 -8 350
c-4 193 -8 365 -8 383 -1 22 -10 40 -28 55 -52 44 -56 61 -49 200 3 71 3 131
-1 134 -15 9 -9 93 7 99 8 4 15 11 15 18 0 6 10 22 23 36 44 48 66 87 78 136
26 105 104 223 142 216 9 -2 17 1 17 7 0 5 26 22 57 36 32 15 99 46 148 70
131 61 164 75 180 75 8 0 15 5 15 10 0 6 7 10 15 10 12 0 89 38 120 60 6 4 26
12 45 20 65 24 249 109 260 120 10 10 50 30 61 30 10 0 69 41 97 68 7 6 17 12
22 12 5 0 11 8 14 18 4 10 14 27 24 38 33 37 41 70 51 212 6 79 10 147 9 150
-1 4 2 20 7 35 5 20 3 33 -9 46 -9 10 -16 23 -16 29 0 16 32 82 41 82 3 0 12
20 19 43 15 55 -1 121 -36 154 -29 27 -31 66 -4 93 12 12 21 35 21 58 2 30 3
32 6 10 5 -30 21 -36 41 -16 9 9 30 9 92 -1 45 -8 83 -11 86 -8 10 10 -7 28
-19 20 -8 -4 -7 -1 1 9 17 22 -3 34 -23 15 -19 -20 -61 -11 -44 9 7 8 14 12
17 9 7 -7 32 44 32 65 0 25 26 29 169 29 68 0 126 2 129 5 9 10 182 7 182 -3z"/>
<path d="M1933 6813 c9 -2 25 -2 35 0 9 3 1 5 -18 5 -19 0 -27 -2 -17 -5z"/>
<path d="M1798 6713 c7 -3 16 -2 19 1 4 3 -2 6 -13 5 -11 0 -14 -3 -6 -6z"/>
<path d="M2265 6700 c-19 -8 -19 -9 3 -9 12 -1 22 4 22 9 0 6 -1 10 -2 9 -2 0
-12 -4 -23 -9z"/>
<path d="M1978 6693 c12 -2 30 -2 40 0 9 3 -1 5 -23 4 -22 0 -30 -2 -17 -4z"/>
<path d="M2068 6693 c6 -2 18 -2 25 0 6 3 1 5 -13 5 -14 0 -19 -2 -12 -5z"/>
<path d="M2214 6564 c3 -9 6 -20 6 -25 0 -5 5 -9 10 -9 6 0 10 11 10 25 0 16
-6 25 -16 25 -11 0 -14 -5 -10 -16z"/>
<path d="M1810 6549 c0 -5 5 -7 10 -4 6 3 10 8 10 11 0 2 -4 4 -10 4 -5 0 -10
-5 -10 -11z"/>
<path d="M1827 6503 c-16 -15 -5 -23 31 -23 l37 1 -25 14 c-29 16 -34 17 -43
8z"/>
<path d="M2240 6290 c0 -19 1 -31 3 -29 1 2 8 11 15 20 10 13 9 19 -3 29 -13
11 -15 8 -15 -20z"/>
<path d="M2241 6128 c-1 -46 2 -58 14 -58 17 0 21 40 6 56 -5 5 -11 20 -14 34
-2 14 -5 -1 -6 -32z"/>
<path d="M2280 6050 c0 -21 -6 -43 -13 -47 -10 -6 -9 -12 5 -25 17 -17 18 -15
18 47 0 36 -2 65 -5 65 -3 0 -5 -18 -5 -40z"/>
<path d="M2241 6034 c0 -11 3 -14 6 -6 3 7 2 16 -1 19 -3 4 -6 -2 -5 -13z"/>
<path d="M1791 5949 c-1 -34 1 -36 26 -31 24 5 25 6 8 12 -11 4 -23 18 -26 31
-6 20 -7 18 -8 -12z"/>
<path d="M1898 5943 c7 -3 16 -2 19 1 4 3 -2 6 -13 5 -11 0 -14 -3 -6 -6z"/>
<path d="M1044 5127 c-17 -12 -44 -31 -60 -42 -16 -10 -38 -28 -50 -40 -11
-11 -29 -25 -40 -31 -19 -12 -18 -13 5 -59 14 -26 34 -53 45 -60 24 -15 161
-20 439 -17 l177 2 0 24 c0 14 -4 28 -10 31 -5 3 -10 27 -10 52 0 34 6 53 22
70 l21 23 -20 0 c-12 0 -48 6 -80 14 -32 8 -118 19 -192 25 -74 5 -139 15
-144 20 -18 18 -70 11 -103 -12z"/>
<path d="M3275 5124 c-27 -13 -60 -24 -72 -24 -12 0 -25 -4 -28 -10 -3 -5 -18
-10 -33 -11 -15 0 -40 -8 -57 -18 -24 -14 -30 -24 -28 -50 3 -59 9 -61 193
-61 146 0 169 2 183 18 13 15 14 20 2 42 -8 14 -14 37 -15 51 0 31 -50 89 -76
88 -10 0 -41 -11 -69 -25z"/>
<path d="M2720 5021 c0 -29 -6 -44 -21 -55 -31 -21 -18 -41 35 -55 60 -15 97
-14 122 4 18 12 20 20 14 59 -10 67 -32 86 -97 86 l-53 0 0 -39z"/>
<path d="M3390 4830 c-8 -5 -31 -10 -50 -11 -30 -1 -28 -3 15 -9 28 -4 54 -5
59 -2 5 3 33 4 63 3 44 -2 52 1 47 13 -7 18 -108 23 -134 6z"/>
<path d="M934 4812 c3 -5 31 -10 63 -11 61 -2 75 -7 55 -20 -31 -19 169 -29
288 -14 49 6 52 7 25 14 -46 11 -153 10 -160 -1 -3 -5 -15 -10 -26 -10 -11 0
-18 4 -15 9 6 10 -26 21 -61 21 -13 0 -23 5 -23 10 0 6 -32 10 -76 10 -41 0
-73 -4 -70 -8z"/>
<path d="M3310 4695 c-5 -14 -14 -25 -20 -25 -5 0 -10 -4 -10 -8 0 -5 13 -7
28 -4 26 3 29 1 29 -28 0 -26 -6 -34 -29 -42 -23 -8 -26 -13 -18 -29 8 -15 7
-19 -4 -19 -8 0 -18 -5 -22 -12 -4 -7 -3 -8 4 -4 7 4 12 1 12 -6 0 -15 76 -58
104 -58 12 0 16 5 13 14 -4 11 9 16 56 23 58 7 62 10 65 36 2 15 8 27 13 27 5
0 9 5 9 11 0 8 -5 7 -15 -1 -19 -16 -19 -16 -39 47 -18 55 -51 81 -105 85 -14
1 -1 4 29 8 l55 7 -73 1 c-69 2 -73 1 -82 -23z"/>
<path d="M1146 4526 c6 -17 -25 -26 -93 -26 -28 0 -58 -3 -67 -6 -29 -11 -6
-24 43 -24 26 0 51 -4 57 -9 19 -18 328 -38 338 -22 4 6 18 11 32 11 29 0 32
16 4 25 -23 7 -43 -2 -35 -16 7 -10 -25 -12 -49 -3 -25 10 -19 24 11 24 20 0
24 3 16 11 -6 6 -23 12 -37 12 -14 0 -26 4 -26 9 0 6 -10 7 -22 3 -32 -9 -40
-9 -67 0 -19 6 -23 4 -19 -7 4 -10 -3 -14 -27 -15 -27 -1 -34 3 -39 23 -4 13
-11 24 -16 24 -5 0 -7 -6 -4 -14z m1 -62 c-3 -3 -12 -4 -19 -1 -8 3 -5 6 6 6
11 1 17 -2 13 -5z"/>
<path d="M900 4491 c0 -5 6 -14 14 -20 10 -8 16 -8 25 3 9 11 8 15 -5 20 -22
8 -34 8 -34 -3z"/>
<path d="M3170 4490 c0 -5 5 -10 10 -10 6 0 10 5 10 10 0 6 -4 10 -10 10 -5 0
-10 -4 -10 -10z"/>
<path d="M753 4393 c-15 -6 -17 -43 -3 -43 27 0 90 26 90 37 0 13 -61 17 -87
6z"/>
<path d="M979 4369 c-23 -5 -23 -6 6 -12 17 -4 44 -3 60 1 l30 9 -36 4 c-19 3
-46 2 -60 -2z"/>
<path d="M863 4355 c5 -10 -4 -16 -31 -22 -20 -4 -43 -6 -49 -5 -7 2 -13 -4
-13 -11 0 -8 -7 -17 -15 -21 -17 -6 -21 -81 -6 -105 8 -13 15 -13 49 -1 52 16
68 9 77 -32 4 -18 18 -56 31 -84 17 -36 22 -60 18 -82 -6 -28 -4 -32 22 -37
16 -4 36 -9 44 -12 22 -8 162 -23 270 -30 52 -3 98 -9 101 -15 4 -5 15 -8 25
-6 14 2 19 12 19 35 0 23 10 43 34 69 l34 36 -16 51 c-9 29 -19 71 -20 95 -2
23 -7 45 -10 48 -7 7 -34 10 -245 25 l-163 12 -27 33 c-15 19 -35 34 -45 34
-11 0 -30 9 -44 20 -30 24 -47 26 -40 5z"/>
<path d="M1377 4340 c39 -16 164 -19 197 -4 28 12 19 13 -94 13 -81 0 -117 -3
-103 -9z"/>
<path d="M2001 4345 c10 -9 319 -13 319 -4 0 5 -71 9 -162 9 -89 0 -159 -2
-157 -5z"/>
<path d="M3310 4328 c-107 -15 -106 -15 -118 -55 -21 -69 -4 -514 23 -590 8
-26 23 -30 31 -8 10 26 24 6 24 -34 0 -67 -11 -101 -31 -101 -12 0 -19 -7 -19
-20 0 -11 -4 -20 -10 -20 -5 0 -10 -17 -10 -37 0 -34 -4 -40 -41 -57 -60 -29
-28 -37 82 -21 52 8 109 15 127 15 17 0 32 5 32 10 0 6 6 10 14 10 34 0 41 30
42 194 0 88 4 288 9 444 l8 282 -49 -1 c-27 -1 -78 -6 -114 -11z m41 -764 c11
-14 10 -19 -10 -35 -30 -25 -42 -16 -29 21 11 34 20 37 39 14z m-76 -67 c6 -5
3 -7 -7 -3 -12 3 -15 1 -11 -10 3 -7 9 -14 14 -14 5 0 9 -4 9 -10 0 -14 -23
-12 -44 3 -18 13 -18 14 0 35 10 12 20 18 23 14 4 -4 11 -11 16 -15z m74 -6
c19 -12 5 -31 -24 -31 -13 0 -27 5 -31 11 -7 11 12 29 31 29 6 0 16 -4 24 -9z"/>
<path d="M1728 4313 c7 -3 12 -23 12 -49 0 -31 4 -44 14 -44 19 0 32 70 14 81
-8 5 2 6 22 2 19 -3 37 -9 40 -12 3 -3 25 -3 50 0 l45 6 -42 1 c-24 1 -43 7
-43 12 0 6 -27 10 -62 9 -35 0 -57 -3 -50 -6z"/>
<path d="M1313 3873 c9 -2 23 -2 30 0 6 3 -1 5 -18 5 -16 0 -22 -2 -12 -5z"/>
<path d="M943 3843 c-44 -8 -23 -24 27 -21 28 2 50 8 50 14 0 11 -35 14 -77 7z"/>
<path d="M856 3803 c-4 -5 -56 -11 -114 -14 l-107 -5 116 -2 c96 -2 118 1 123
13 6 16 -5 20 -18 8z"/>
<path d="M548 3783 c6 -2 18 -2 25 0 6 3 1 5 -13 5 -14 0 -19 -2 -12 -5z"/>
<path d="M1308 3783 c7 -3 16 -2 19 1 4 3 -2 6 -13 5 -11 0 -14 -3 -6 -6z"/>
<path d="M1039 3756 c-62 -10 -69 -14 -118 -67 l-51 -57 0 -495 0 -495 48 -41
c41 -35 53 -41 92 -40 l45 1 -38 8 c-21 4 -43 12 -49 18 -12 12 -2 32 16 32 8
0 20 7 27 16 7 9 24 20 37 25 13 5 26 18 29 29 3 11 9 20 13 20 4 0 10 9 13
20 3 12 11 18 19 15 11 -4 13 28 12 187 -3 420 -15 752 -30 779 -11 23 -11 28
0 32 8 3 17 -1 20 -9 8 -20 30 -17 52 8 l19 21 -32 -6 c-18 -4 -35 -2 -38 3
-3 6 -9 9 -13 9 -4 -1 -37 -7 -73 -13z"/>
<path d="M716 3671 c-3 -5 1 -14 8 -20 16 -13 32 2 21 19 -8 12 -22 13 -29 1z"/>
<path d="M1200 3657 c0 -9 5 -17 10 -17 6 0 10 -8 11 -17 0 -11 3 -13 6 -6 2
7 -3 23 -11 35 -13 18 -16 19 -16 5z"/>
<path d="M3220 3569 c0 -5 5 -7 10 -4 6 3 10 8 10 11 0 2 -4 4 -10 4 -5 0 -10
-5 -10 -11z"/>
<path d="M1530 3458 c0 -41 3 -48 20 -48 25 0 25 21 0 62 l-20 33 0 -47z"/>
<path d="M1530 3354 c0 -40 2 -45 15 -34 13 11 15 8 15 -13 0 -14 4 -28 9 -31
4 -3 11 -19 14 -36 5 -23 12 -30 29 -30 26 1 63 25 64 43 1 35 -57 109 -83
105 -11 -2 -22 6 -28 20 -17 38 -35 26 -35 -24z"/>
<path d="M3360 3355 c-7 -8 -29 -15 -49 -16 l-36 -1 33 -9 c40 -12 42 -29 2
-29 -16 0 -30 5 -30 10 0 6 -18 10 -40 10 -59 0 -49 -13 23 -31 68 -17 87 -15
87 7 0 8 7 14 15 14 8 0 15 7 15 15 0 11 9 15 33 13 18 -1 38 1 44 5 6 4 14 3
18 -3 9 -14 45 -12 43 3 -6 26 -138 36 -158 12z"/>
<path d="M2765 3340 c-4 -6 12 -10 42 -9 36 0 43 3 28 9 -28 12 -63 12 -70 0z"/>
<path d="M2782 3271 c-22 -14 13 -22 61 -14 33 5 37 8 22 14 -27 10 -67 11
-83 0z"/>
<path d="M2140 3190 c-26 -26 -25 -55 1 -81 15 -15 29 -19 47 -16 20 4 34 -1
53 -20 15 -13 29 -20 33 -15 3 5 -6 19 -19 32 -18 17 -23 29 -18 50 4 20 -1
34 -16 49 -26 26 -55 27 -81 1z m74 -6 c31 -30 9 -84 -34 -84 -24 0 -50 26
-50 50 0 24 26 50 50 50 10 0 26 -7 34 -16z"/>
<path d="M2162 3164 c-11 -12 -10 -17 2 -30 15 -14 17 -14 32 0 14 14 14 18 0
31 -18 18 -18 18 -34 -1z"/>
<path d="M3445 3200 c-3 -5 1 -10 9 -10 9 0 16 5 16 10 0 6 -4 10 -9 10 -6 0
-13 -4 -16 -10z"/>
<path d="M3430 3105 c0 -8 7 -15 15 -15 8 0 15 4 15 9 0 5 -7 11 -15 15 -9 3
-15 0 -15 -9z"/>
<path d="M3243 3083 c-13 -9 -23 -19 -23 -24 0 -15 37 -10 50 6 19 23 -1 36
-27 18z"/>
<path d="M3312 3076 c1 -10 8 -17 13 -17 15 1 12 24 -3 29 -9 3 -13 -2 -10
-12z"/>
<path d="M3360 3055 c0 -16 16 -20 24 -6 3 5 -1 11 -9 15 -9 3 -15 0 -15 -9z"/>
<path d="M3290 3050 c0 -5 5 -10 10 -10 6 0 10 5 10 10 0 6 -4 10 -10 10 -5 0
-10 -4 -10 -10z"/>
<path d="M3345 2878 c-22 -6 -44 -17 -48 -24 -4 -8 -24 -14 -42 -14 -28 0 -35
-4 -35 -20 0 -24 32 -27 50 -5 15 19 33 9 27 -15 -3 -12 2 -20 14 -23 21 -6
23 -21 20 -109 -3 -53 -1 -58 18 -58 17 0 21 6 21 35 0 20 11 68 25 107 14 39
25 86 25 105 0 37 -6 38 -75 21z"/>
<path d="M1531 2824 c0 -11 3 -14 6 -6 3 7 2 16 -1 19 -3 4 -6 -2 -5 -13z"/>
<path d="M1532 2730 c0 -14 2 -19 5 -12 2 6 2 18 0 25 -3 6 -5 1 -5 -13z"/>
<path d="M1140 2726 c0 -2 9 -6 20 -9 11 -3 20 -1 20 4 0 5 -9 9 -20 9 -11 0
-20 -2 -20 -4z"/>
<path d="M500 2593 c0 -12 5 -25 11 -28 16 -11 17 -2 2 25 -12 24 -13 24 -13
3z"/>
<path d="M470 2538 c0 -19 2 -20 10 -8 13 19 13 30 0 30 -5 0 -10 -10 -10 -22z"/>
<path d="M451 2504 c0 -11 3 -14 6 -6 3 7 2 16 -1 19 -3 4 -6 -2 -5 -13z"/>
<path d="M470 2443 c0 -13 5 -23 10 -23 13 0 13 11 0 30 -8 12 -10 11 -10 -7z"/>
<path d="M1532 2100 c0 -14 2 -19 5 -12 2 6 2 18 0 25 -3 6 -5 1 -5 -13z"/>
<path d="M1511 2074 c-1 -15 -89 -74 -110 -74 -11 0 -21 -5 -23 -11 -2 -6 -43
-11 -101 -12 -87 -1 -97 -3 -97 -20 0 -14 5 -17 22 -11 13 4 48 7 78 7 34 -1
72 7 100 19 29 14 45 17 48 9 5 -16 22 -14 22 3 0 8 9 18 20 21 25 8 54 50 47
67 -3 7 -6 8 -6 2z"/>
<path d="M943 2033 c-13 -2 -23 -9 -23 -14 0 -5 -7 -9 -15 -9 -22 0 -18 -17 6
-23 15 -4 23 0 26 13 3 10 14 22 26 28 23 11 18 12 -20 5z"/>
<path d="M1005 2019 c6 -17 4 -21 -7 -16 -8 3 -21 1 -29 -5 -10 -7 -3 -8 24
-4 21 3 37 1 37 -5 0 -6 8 -8 19 -4 12 3 21 0 25 -10 3 -8 16 -20 28 -25 18
-7 19 -9 6 -9 -34 -2 -18 -21 16 -21 19 0 38 5 41 10 3 6 -1 10 -10 10 -12 0
-15 6 -10 20 5 17 1 21 -25 27 -18 3 -34 12 -37 19 -3 8 -14 14 -25 14 -11 0
-28 5 -40 11 -18 10 -19 8 -13 -12z"/>
<path d="M1298 1923 c6 -2 18 -2 25 0 6 3 1 5 -13 5 -14 0 -19 -2 -12 -5z"/>
<path d="M1415 1290 c-3 -5 1 -10 10 -10 9 0 13 5 10 10 -3 6 -8 10 -10 10 -2
0 -7 -4 -10 -10z"/>
<path d="M3440 1248 c-14 -5 -29 -16 -33 -24 -5 -9 -16 -13 -28 -9 -19 6 -54
-17 -42 -29 3 -3 -6 -10 -21 -15 -14 -6 -26 -15 -26 -22 0 -7 -11 -8 -30 -4
-26 6 -30 3 -36 -19 -3 -14 -10 -26 -14 -26 -4 0 -10 -9 -13 -19 -3 -13 -16
-21 -38 -24 -31 -3 -31 -4 8 -5 23 -1 45 3 48 8 4 6 15 8 26 5 12 -4 21 -1 25
8 3 8 13 13 24 10 10 -3 21 0 24 6 4 6 16 11 26 11 11 0 28 10 40 22 11 12 20
16 20 10 0 -14 36 -16 44 -3 3 4 19 11 36 14 16 4 30 11 30 17 0 13 -12 13
-44 0 -28 -10 -86 -3 -86 11 0 5 11 9 25 9 14 0 25 4 25 8 0 5 9 18 21 30 26
29 21 42 -11 30z m-120 -118 c0 -5 -5 -10 -11 -10 -5 0 -7 5 -4 10 3 6 8 10
11 10 2 0 4 -4 4 -10z"/>
<path d="M928 1123 c7 -3 16 -2 19 1 4 3 -2 6 -13 5 -11 0 -14 -3 -6 -6z"/>
<path d="M3156 1121 c-4 -7 -5 -15 -2 -18 9 -9 19 4 14 18 -4 11 -6 11 -12 0z"/>
<path d="M1608 963 c7 -3 16 -2 19 1 4 3 -2 6 -13 5 -11 0 -14 -3 -6 -6z"/>
</g>
</svg>
