<?xml version="1.0" standalone="no"?>
<!DOCTYPE svg PUBLIC "-//W3C//DTD SVG 20010904//EN"
 "http://www.w3.org/TR/2001/REC-SVG-20010904/DTD/svg10.dtd">
<svg version="1.0" xmlns="http://www.w3.org/2000/svg"
 width="810.000000pt" height="560.000000pt" viewBox="0 0 810.000000 560.000000"
 preserveAspectRatio="xMidYMid meet">

<g transform="translate(0.000000,560.000000) scale(0.100000,-0.100000)"
fill="#000000" stroke="none">
<path d="M3855 5175 c-468 -52 -935 -247 -1300 -542 -195 -158 -379 -360 -518
-571 l-81 -123 -56 -15 c-30 -8 -60 -17 -65 -18 -6 -2 -62 -94 -124 -205
l-115 -201 -84 143 c-46 78 -85 143 -86 144 -4 4 -231 -59 -238 -65 -4 -4 -21
-128 -37 -277 -60 -525 -91 -780 -101 -823 -5 -23 -10 -56 -10 -72 0 -30 0
-30 -59 -30 -32 0 -85 3 -119 6 -49 5 -61 10 -66 26 -2 11 -9 18 -13 15 -5 -3
-10 3 -10 14 -1 10 5 19 13 19 8 0 14 4 14 9 0 4 28 20 63 35 34 15 73 33 87
40 14 7 37 16 51 19 25 6 26 9 36 129 6 68 9 125 7 127 -6 7 -233 -79 -334
-127 -52 -24 -123 -64 -158 -88 -35 -25 -68 -41 -74 -38 -7 4 -8 2 -4 -4 4 -6
-6 -19 -21 -29 -15 -10 -33 -24 -39 -32 -7 -8 -16 -11 -24 -6 -9 5 -11 4 -6
-3 4 -7 2 -12 -3 -12 -6 0 -11 5 -11 11 0 6 -9 9 -20 6 -11 -3 -23 -1 -26 4
-3 5 -41 9 -85 9 -46 0 -79 4 -79 10 0 6 -18 10 -40 10 -29 0 -40 -4 -40 -15
0 -11 -11 -15 -40 -15 l-40 0 0 -1320 0 -1320 3215 0 3215 0 0 27 0 27 28 -27
28 -27 807 0 807 0 0 1080 0 1080 -210 0 c-180 0 -210 2 -210 15 0 11 -11 15
-40 15 -36 0 -40 3 -40 25 l0 25 -120 0 c-82 0 -120 -4 -120 -11 0 -8 -22 -9
-76 -4 -75 7 -117 25 -168 72 -11 10 -16 12 -12 6 4 -7 2 -13 -3 -13 -18 0
-12 19 10 30 11 7 27 9 36 6 11 -5 13 -2 9 9 -4 10 2 19 17 24 23 9 70 64 103
121 73 126 72 275 -3 383 -15 21 -68 69 -119 107 -52 40 -94 79 -98 92 -3 13
-6 49 -6 81 0 31 -2 57 -4 57 -2 0 -32 -8 -67 -19 -35 -10 -83 -24 -106 -30
-31 -8 -44 -18 -48 -34 -26 -118 -97 -509 -92 -513 3 -3 29 1 59 10 29 9 81
23 115 33 l62 17 12 68 c7 37 15 68 19 68 3 0 25 -16 47 -35 110 -94 26 -240
-171 -301 -54 -16 -92 -25 -116 -28 -19 -1 -40 -21 -40 -36 0 -30 -33 -107
-46 -107 -8 0 -14 6 -14 14 0 7 7 13 15 13 8 0 15 4 15 9 0 5 3 18 6 28 3 10
-2 7 -10 -7 -14 -23 -15 -23 -17 -5 0 11 -7 0 -14 -25 l-14 -45 5 55 c4 33 2
50 -3 43 -5 -8 -8 114 -6 292 2 168 -1 305 -5 305 -4 0 -13 37 -20 83 -41 261
-127 531 -244 760 -29 56 -54 105 -56 108 -1 4 21 0 50 -7 49 -13 60 -12 153
11 55 14 120 31 145 39 l45 13 11 81 c5 45 13 84 16 87 3 3 16 -3 29 -13 63
-49 138 -66 231 -51 85 14 420 108 435 123 7 6 15 56 19 114 6 84 4 102 -7
102 -8 0 -109 -27 -224 -60 -116 -33 -224 -60 -242 -60 -112 -1 -145 119 -73
266 47 97 136 164 179 137 21 -14 17 -60 -13 -131 -13 -31 -23 -58 -22 -59 2
-2 164 41 238 63 37 11 51 142 23 212 -40 96 -136 148 -254 140 -93 -7 -170
-46 -252 -127 -114 -114 -164 -248 -157 -416 3 -68 10 -101 27 -134 12 -24 19
-47 14 -51 -13 -13 -237 -70 -244 -62 -3 4 9 137 27 296 19 159 32 291 29 294
-6 7 -215 -49 -221 -59 -3 -5 -18 -124 -35 -266 -17 -142 -34 -267 -38 -277
-7 -17 -12 -14 -41 28 -18 27 -66 88 -106 136 -41 49 -74 92 -74 97 0 4 42 20
93 34 l92 25 13 114 c7 62 11 114 9 116 -1 2 -42 -8 -91 -22 -49 -14 -89 -24
-91 -22 -1 2 6 71 15 153 9 83 16 152 14 154 -6 7 -214 -52 -223 -63 -5 -6
-14 -58 -20 -116 -7 -58 -15 -121 -18 -142 l-5 -36 -72 57 c-505 409 -1187
608 -1841 536z m620 -60 c438 -67 818 -230 1168 -498 42 -33 75 -63 72 -66 -4
-3 -27 -13 -53 -21 -35 -11 -48 -21 -50 -37 -2 -13 -5 -23 -7 -23 -2 0 -42 29
-89 65 -47 35 -140 96 -205 135 -669 396 -1488 428 -2186 85 -407 -199 -723
-490 -970 -892 l-36 -58 6 55 c3 30 8 72 11 93 3 20 4 37 2 37 -1 0 -24 -7
-50 -15 -27 -8 -48 -10 -48 -6 0 15 150 224 221 307 134 158 323 327 494 442
355 238 732 370 1190 416 83 8 434 -4 530 -19z m-26 -170 c142 -20 345 -71
476 -120 206 -76 452 -213 618 -344 l60 -46 -7 -72 c-3 -40 -2 -73 2 -73 5 0
32 7 61 16 68 20 85 14 77 -29 -3 -17 -10 -87 -16 -155 -17 -186 7 -263 94
-309 42 -22 142 -20 229 5 l68 20 74 -152 c83 -170 142 -336 179 -506 27 -121
52 -297 44 -305 -3 -3 -25 -2 -49 3 -65 11 -151 -2 -216 -33 -78 -38 -191
-152 -227 -228 -59 -126 -71 -293 -27 -391 11 -25 16 -48 11 -51 -4 -2 -49
-16 -99 -29 -83 -22 -93 -23 -98 -9 -4 9 -1 71 5 137 17 176 0 242 -78 309
-76 64 -191 74 -287 24 -27 -14 -94 -38 -151 -53 -56 -15 -107 -31 -113 -34
-6 -4 -17 -67 -25 -141 -31 -281 -70 -680 -67 -683 3 -3 215 54 221 59 2 1 12
81 22 176 30 266 56 364 114 427 44 49 111 67 136 37 10 -12 10 -46 0 -168 -7
-84 -10 -170 -6 -190 10 -54 66 -112 128 -133 59 -19 87 -16 245 28 122 35
123 35 123 124 0 19 2 34 5 34 3 0 24 -9 47 -21 68 -35 186 -36 271 -3 15 6
18 3 15 -17 -2 -20 -15 -28 -78 -47 -297 -91 -371 -125 -455 -210 -32 -31 -69
-82 -88 -121 -29 -60 -32 -75 -32 -156 0 -71 5 -100 22 -138 25 -54 106 -138
152 -157 17 -7 31 -18 31 -25 0 -21 -251 -258 -357 -338 -306 -228 -652 -370
-1058 -433 -167 -26 -480 -24 -650 5 -238 39 -469 112 -654 206 l-74 37 6 41
c3 23 18 146 33 273 l27 232 58 -5 c71 -7 207 32 282 79 108 69 197 238 197
375 l0 52 58 17 c31 9 80 22 109 30 51 15 52 16 57 60 4 24 9 64 12 89 5 40
18 64 29 53 2 -2 -3 -26 -11 -53 -18 -59 -21 -174 -6 -230 27 -95 110 -183
196 -206 52 -14 112 -7 236 28 l98 27 6 44 c3 25 6 59 6 76 l0 30 30 -32 c37
-41 103 -72 155 -72 33 0 280 61 290 72 4 5 25 169 25 199 l0 28 -72 -21
c-163 -46 -203 -56 -210 -49 -4 3 2 83 13 176 42 356 46 405 35 405 -17 0
-205 -55 -212 -62 -7 -8 -64 -476 -64 -531 0 -43 -3 -45 -126 -77 -45 -12 -99
-20 -120 -18 -34 3 -41 8 -57 41 -27 54 -16 138 32 230 34 68 39 73 87 90 l51
18 9 110 c5 60 6 109 2 109 -6 0 -94 -24 -313 -86 -27 -7 -60 -14 -73 -14 -22
0 -22 3 -16 52 6 47 5 51 -12 46 -10 -3 -58 -16 -106 -29 -101 -27 -88 6 -114
-269 -9 -96 -18 -182 -21 -190 -3 -11 -43 79 -43 98 0 1 -21 26 -47 53 -99
106 -205 125 -356 64 -16 -7 -17 -3 -11 45 6 47 5 53 -9 47 -9 -3 -54 -16 -99
-28 -46 -12 -88 -27 -94 -33 -7 -6 -17 -58 -23 -116 -11 -107 -89 -776 -116
-995 -8 -67 -15 -127 -15 -134 0 -15 -24 -2 -102 57 l-48 36 0 81 c0 232 -130
406 -435 582 -135 79 -194 129 -222 189 -30 66 -27 111 15 187 48 88 136 151
257 183 68 19 112 17 163 -6 41 -19 42 -20 42 -69 0 -67 -35 -110 -98 -118
l-43 -6 3 -106 3 -106 58 1 c106 2 231 84 295 193 24 41 27 56 27 136 0 73 -5
100 -24 142 -29 65 -103 136 -179 171 -52 25 -67 27 -177 27 -110 -1 -126 -3
-195 -31 -89 -36 -173 -88 -235 -146 -25 -22 -47 -39 -50 -37 -4 4 -45 237
-45 257 0 8 9 8 31 0 42 -15 147 -5 246 22 l81 23 6 51 c3 28 9 84 12 125 7
70 6 74 -12 67 -10 -4 -63 -19 -117 -33 -70 -18 -102 -22 -109 -15 -8 8 -8 37
0 99 10 77 58 524 93 858 12 122 19 139 135 315 214 327 524 605 873 780 271
136 530 208 886 244 76 8 341 -4 454 -19z m2700 -60 c65 -33 108 -120 95 -190
-6 -32 -11 -36 -57 -50 -28 -8 -54 -15 -58 -15 -3 0 -4 20 -2 44 8 63 -3 93
-37 111 -61 31 -127 8 -199 -70 -105 -114 -138 -291 -71 -386 22 -30 85 -59
129 -59 16 0 115 25 221 55 106 30 195 53 197 51 2 -2 1 -26 -3 -54 l-6 -50
-147 -41 c-326 -90 -367 -90 -460 1 -55 54 -75 110 -75 208 1 143 38 240 129
339 78 83 155 121 247 121 41 0 80 -6 97 -15z m-1215 -57 c-18 -146 -30 -259
-27 -262 2 -2 43 7 91 20 48 13 89 24 91 24 5 0 -7 -101 -12 -107 -2 -2 -44
-15 -93 -29 -49 -15 -90 -27 -91 -28 -6 -4 -43 -329 -43 -375 0 -97 40 -111
190 -66 46 14 88 25 93 25 9 0 3 -97 -7 -107 -11 -11 -176 -54 -227 -60 -72
-7 -121 14 -145 65 -14 30 -16 54 -11 152 3 63 12 161 18 217 7 57 10 105 7
108 -3 4 -35 -2 -72 -11 -36 -10 -67 -16 -69 -14 -2 3 -1 27 2 55 l6 49 75 22
75 21 20 158 20 158 35 13 c19 7 45 13 57 13 21 1 22 -2 17 -41z m451 -391
c-14 -119 -25 -234 -25 -256 0 -77 39 -87 185 -46 50 14 92 25 95 25 3 0 3
-24 0 -52 l-5 -53 -119 -33 c-78 -22 -129 -32 -150 -28 -50 10 -96 43 -113 84
-15 35 -14 54 16 307 18 148 34 271 36 273 2 2 25 9 52 16 42 11 48 11 51 -3
1 -9 -9 -114 -23 -234z m-387 -159 c15 -17 55 -68 89 -112 52 -67 60 -83 48
-92 -14 -11 -125 -39 -129 -32 -1 1 -16 21 -33 43 l-31 40 11 93 c6 50 12 92
14 92 3 0 16 -14 31 -32z m-34 -223 c16 -24 16 -25 -4 -25 -15 0 -20 7 -20 25
0 14 2 25 4 25 2 0 11 -11 20 -25z m315 -182 c71 -132 131 -271 182 -423 50
-151 98 -364 102 -453 l2 -51 -63 -17 c-47 -13 -64 -15 -67 -6 -1 7 -9 53 -15
102 -30 216 -103 452 -211 674 -38 79 -68 145 -67 147 2 1 19 6 38 11 32 8 35
12 38 51 2 23 7 42 11 42 4 0 27 -35 50 -77z m-4243 30 c-3 -21 -24 -211 -46
-423 -22 -212 -47 -446 -55 -520 -26 -235 -27 -253 -13 -280 25 -46 57 -53
148 -32 l80 19 0 -33 c0 -66 -12 -80 -90 -99 -88 -22 -180 -17 -211 11 -63 56
-63 117 1 694 53 483 55 500 41 500 -5 0 -78 -119 -161 -265 -84 -146 -155
-267 -159 -269 -3 -2 -57 83 -120 190 -63 107 -118 194 -122 194 -13 0 -15
-12 -79 -600 -68 -611 -96 -800 -141 -934 -58 -173 -144 -297 -265 -379 -101
-69 -169 -91 -284 -91 -86 -1 -101 2 -161 30 -236 112 -313 373 -199 678 73
194 305 423 536 527 73 32 192 79 203 79 4 0 4 -23 1 -51 l-5 -51 -88 -38
c-115 -50 -207 -105 -292 -177 -295 -248 -380 -599 -191 -789 66 -65 128 -88
230 -82 217 11 375 204 446 546 11 53 54 401 95 772 42 371 77 675 78 676 9 8
150 44 155 40 3 -3 47 -77 97 -163 51 -86 97 -159 102 -160 5 -2 68 102 141
230 l132 233 92 26 c51 14 97 26 101 27 5 0 6 -16 3 -36z m-226 -744 c-52
-468 -55 -510 -41 -572 7 -31 25 -74 41 -96 24 -32 33 -62 50 -163 11 -68 24
-139 28 -158 7 -29 3 -45 -24 -95 -17 -33 -40 -82 -50 -109 l-18 -49 -18 52
c-26 77 -67 269 -85 396 -20 138 -22 463 -4 600 26 203 59 334 104 412 23 40
43 69 45 64 1 -4 -11 -131 -28 -282z m-300 24 c46 -78 87 -140 92 -137 5 3 18
23 29 46 26 51 34 43 21 -19 -21 -97 -34 -303 -31 -482 2 -102 3 -177 1 -168
-4 19 -18 23 -24 6 -3 -8 -18 -4 -46 10 -22 11 -57 21 -76 21 -19 0 -38 5 -41
10 -9 14 -72 12 -78 -2 -3 -7 -6 -3 -6 10 -1 12 -5 22 -10 22 -6 0 -17 -10
-27 -22 -14 -20 -15 -20 -9 -3 15 42 18 58 8 52 -6 -4 -8 15 -6 51 6 80 71
719 79 766 l6 39 18 -29 c9 -16 55 -93 100 -171z m5450 -55 c1 -55 35 -99 130
-171 75 -58 100 -83 123 -127 26 -50 28 -62 25 -130 -8 -134 -73 -224 -216
-298 -77 -40 -258 -99 -269 -88 -3 3 -2 25 3 48 9 42 10 43 72 60 87 23 180
68 227 109 96 84 112 234 34 306 -31 28 -139 93 -155 93 -6 0 -15 -17 -18 -37
-24 -137 -25 -139 -74 -152 -24 -6 -46 -10 -48 -8 -4 3 62 361 70 383 3 7 22
16 43 22 54 14 53 14 53 -10z m-445 -464 c-14 -121 -37 -307 -50 -414 -13
-107 -20 -198 -16 -202 3 -4 67 10 141 31 l135 38 3 -44 c2 -25 1 -47 -1 -49
-2 -2 -68 -22 -148 -45 -79 -23 -145 -43 -147 -44 -2 -2 -10 -57 -18 -122 -8
-65 -22 -147 -31 -183 -36 -146 -121 -256 -243 -314 -58 -28 -75 -31 -155 -31
-101 0 -155 19 -214 77 -56 55 -76 103 -76 188 0 94 30 162 107 237 81 80 149
109 464 202 81 24 77 18 90 154 7 77 0 94 -25 63 -38 -45 -205 -80 -275 -56
-118 39 -178 189 -143 356 21 97 51 156 115 225 105 114 246 154 352 102 49
-25 60 -19 60 29 0 23 6 29 48 40 42 13 47 12 50 -3 2 -9 -9 -115 -23 -235z
m-6160 -44 c-3 -5 -1 -10 6 -10 7 0 10 -3 6 -6 -9 -9 -28 6 -22 17 4 5 8 9 11
9 3 0 2 -4 -1 -10z m5191 -30 c18 -12 43 -38 56 -58 25 -40 28 -88 18 -293 -4
-85 -3 -99 14 -118 25 -28 69 -27 171 3 44 13 82 22 84 20 2 -2 0 -23 -3 -48
l-7 -44 -67 -20 c-145 -44 -222 -44 -267 -2 -35 33 -39 71 -25 240 15 171 9
199 -45 224 -40 19 -55 20 -109 4 -59 -18 -128 -90 -155 -163 -30 -79 -38
-122 -61 -319 -11 -93 -21 -171 -24 -173 -2 -2 -25 -11 -50 -18 -45 -14 -46
-14 -41 8 2 12 19 169 37 349 l32 327 25 6 c15 3 34 8 44 11 13 4 17 0 17 -19
0 -13 3 -26 6 -30 3 -3 36 20 74 51 109 92 195 111 276 62z m-4790 -27 c-10
-10 -19 5 -10 18 6 11 8 11 12 0 2 -7 1 -15 -2 -18z m-36 -7 c0 -2 -7 -7 -16
-10 -8 -3 -12 -2 -9 4 6 10 25 14 25 6z m-73 -61 c0 -8 -4 -12 -9 -9 -5 3 -6
10 -3 15 9 13 12 11 12 -6z m1818 -140 c79 -13 162 -71 196 -137 88 -172 0
-341 -208 -403 -22 -6 -23 -3 -23 43 0 44 3 51 24 56 32 8 83 52 100 85 36 71
26 153 -24 195 -101 84 -342 36 -471 -95 -73 -73 -102 -135 -107 -222 -8 -135
37 -188 283 -336 149 -90 214 -140 269 -205 91 -110 119 -184 120 -321 1 -113
-15 -177 -70 -290 -110 -226 -337 -363 -585 -353 -87 3 -104 7 -171 40 -93 46
-167 122 -211 215 -26 56 -32 83 -35 157 -6 114 9 179 66 296 38 77 61 109
132 181 47 47 95 89 107 93 16 5 35 0 63 -17 l41 -24 -66 -54 c-151 -122 -243
-300 -233 -449 8 -113 73 -224 164 -280 17 -11 61 -27 99 -35 230 -54 491 122
569 384 22 76 21 188 -4 259 -42 119 -107 179 -348 323 -183 109 -241 158
-282 243 -39 82 -46 138 -26 217 43 167 143 298 282 371 134 69 215 84 349 63z
m4162 -27 c-3 -8 -6 -5 -6 6 -1 11 2 17 5 13 3 -3 4 -12 1 -19z m-1987 5 c0
-5 -11 -102 -25 -218 -14 -115 -25 -230 -25 -254 0 -86 42 -99 190 -56 46 13
86 22 88 20 2 -2 0 -22 -5 -45 l-8 -43 -95 -28 c-141 -43 -199 -36 -249 27
-27 35 -27 71 4 330 14 115 25 217 25 227 0 11 13 24 33 32 35 16 67 19 67 8z
m2415 -62 c3 -5 1 -12 -4 -15 -5 -3 -11 1 -15 9 -6 16 9 21 19 6z m55 -6 c-7
-8 -19 -15 -27 -15 -11 0 -11 3 -1 15 18 20 45 21 28 0z m-3270 -37 c0 -31 29
-58 63 -58 16 0 88 16 161 36 186 52 176 50 176 23 0 -51 -12 -69 -49 -79 -30
-8 -43 -20 -73 -72 -92 -159 -92 -337 0 -390 40 -24 89 -23 180 3 40 11 75 19
77 17 2 -2 1 -22 -2 -46 -5 -41 -7 -43 -57 -57 -28 -9 -81 -21 -118 -27 -59
-11 -71 -10 -109 7 -153 69 -186 252 -82 458 13 27 22 51 19 54 -5 6 -167 -35
-186 -47 -6 -4 -16 -45 -21 -91 -5 -46 -13 -87 -17 -90 -4 -4 -24 -12 -44 -17
-46 -12 -44 -32 -21 200 16 175 17 178 42 187 44 16 61 13 61 -11z m3080 2 c0
-5 -5 -10 -11 -10 -5 0 -7 5 -4 10 3 6 8 10 11 10 2 0 4 -4 4 -10z m-3804
-230 c-3 -38 -2 -70 2 -70 5 0 30 16 56 35 123 95 271 85 353 -23 43 -57 58
-110 57 -212 -1 -133 -62 -269 -149 -335 -46 -36 -152 -74 -224 -81 -49 -5
-61 -3 -94 20 -21 14 -42 26 -47 26 -5 0 -11 -19 -15 -42 -8 -60 -93 -760
-101 -836 l-7 -62 -46 -14 c-25 -7 -47 -10 -49 -5 -3 6 72 653 174 1504 7 66
14 125 14 131 0 9 45 30 74 33 5 1 6 -30 2 -69z m-893 -684 c117 -73 211 -171
233 -243 15 -51 19 -160 5 -181 -6 -10 -34 14 -101 85 -125 131 -246 289 -330
427 l-24 40 60 -34 c32 -18 103 -61 157 -94z m3795 -136 c52 0 53 0 38 -21
-48 -69 -214 -243 -310 -325 -359 -310 -749 -492 -1241 -580 -145 -26 -606
-27 -750 -1 -238 44 -450 108 -656 200 l-55 25 9 79 c5 43 10 79 11 81 2 1 50
-20 107 -47 181 -86 384 -148 609 -188 138 -24 480 -29 641 -8 529 67 1035
323 1384 698 86 93 91 97 125 92 19 -3 59 -5 88 -5z m-3236 -362 l70 -52 -7
-80 c-4 -45 -9 -83 -11 -85 -8 -9 -175 112 -170 123 2 6 12 41 22 79 10 37 20
67 22 67 3 0 36 -23 74 -52z"/>
<path d="M5240 4421 c-150 -46 -292 -203 -344 -380 -21 -71 -21 -203 0 -265 9
-26 15 -48 13 -50 -9 -8 -192 -56 -211 -56 -21 0 -21 2 -12 108 18 222 5 282
-77 356 -84 75 -176 84 -294 27 -33 -16 -107 -42 -165 -57 -58 -16 -108 -32
-111 -37 -4 -5 -10 -41 -13 -81 -4 -39 -23 -224 -42 -410 -19 -186 -33 -341
-30 -343 4 -4 216 53 222 60 2 2 14 97 28 213 33 284 64 377 145 431 19 13 49
23 67 23 50 0 57 -21 44 -141 -13 -130 -13 -230 1 -266 14 -38 57 -83 96 -99
53 -23 146 -17 267 17 61 17 114 34 118 38 4 3 10 38 15 78 l8 72 44 -29 c52
-35 99 -50 162 -50 52 0 497 121 508 139 9 14 34 212 27 218 -2 3 -110 -25
-240 -61 -250 -70 -302 -78 -329 -48 -26 29 -20 40 26 52 105 27 216 64 257
85 185 95 204 347 31 437 -43 23 -65 28 -120 27 -36 0 -77 -4 -91 -8z m153
-35 c112 -48 135 -194 46 -291 -47 -51 -96 -73 -265 -120 -70 -19 -131 -40
-135 -46 -14 -23 10 -84 45 -116 30 -27 44 -33 82 -33 42 0 200 38 373 91 82
25 81 25 81 -13 0 -49 -10 -76 -28 -81 -437 -125 -464 -129 -548 -86 -61 31
-108 97 -124 176 -40 188 113 453 299 519 48 17 134 17 174 0z m-876 -233 c82
-43 111 -123 94 -263 -29 -246 -6 -274 184 -215 44 14 81 25 83 25 1 0 2 -17
2 -37 0 -75 -2 -76 -120 -107 -161 -42 -234 -28 -267 52 -13 32 -14 57 -3 199
14 179 9 209 -36 234 -57 30 -156 0 -208 -62 -73 -86 -91 -162 -134 -539 l-7
-65 -50 -16 c-27 -9 -53 -14 -56 -10 -6 5 55 648 66 697 3 16 17 25 49 33 59
15 56 15 56 -20 l0 -30 58 50 c112 98 200 120 289 74z"/>
<path d="M5223 4269 c-23 -11 -62 -42 -86 -68 -44 -47 -91 -125 -85 -140 4
-12 235 56 275 81 59 35 64 95 11 132 -30 22 -65 20 -115 -5z m111 -78 c9 -14
-26 -38 -82 -56 -76 -25 -80 -10 -8 39 39 26 80 34 90 17z"/>
<path d="M3805 4026 c-70 -20 -111 -37 -113 -46 -2 -12 -23 -15 -105 -15 -94
0 -107 -2 -170 -32 -180 -86 -295 -289 -285 -504 3 -71 9 -98 34 -147 l30 -61
-112 -30 c-123 -34 -144 -37 -144 -18 1 6 16 140 34 297 19 157 32 287 30 289
-4 4 -73 -13 -166 -41 -55 -16 -68 -24 -68 -40 0 -14 -5 -18 -16 -14 -49 19
-125 18 -192 -3 -257 -78 -416 -403 -321 -657 26 -68 88 -140 144 -165 70 -32
234 -21 315 21 14 7 44 31 67 53 39 37 45 40 68 29 44 -20 116 -13 244 23 68
19 127 37 131 40 4 3 11 42 15 88 l7 84 54 -29 c69 -38 138 -45 228 -24 38 9
71 14 73 12 3 -2 2 -14 -2 -25 -4 -14 -23 -25 -63 -36 -134 -38 -272 -85 -335
-115 -98 -46 -188 -133 -234 -227 -33 -67 -37 -83 -37 -157 -1 -73 3 -89 32
-148 117 -238 444 -265 655 -54 101 101 152 232 175 449 6 49 12 90 15 93 2 3
69 23 148 45 79 22 146 45 150 51 4 5 9 44 13 87 4 42 9 91 13 109 6 38 21 40
-171 -15 -65 -18 -121 -32 -123 -30 -2 3 12 139 32 303 19 165 42 359 51 432
8 73 14 139 12 146 -2 10 -29 6 -113 -18z m35 -20 c0 -7 -68 -577 -85 -709 -8
-66 -15 -134 -15 -152 l0 -33 138 39 c75 21 140 39 145 39 10 0 9 -64 -2 -92
-8 -20 -30 -29 -155 -63 -164 -45 -149 -30 -161 -160 -9 -95 -40 -235 -64
-291 -88 -198 -301 -305 -490 -247 -82 26 -163 107 -186 187 -42 144 38 307
195 399 58 34 207 87 340 122 58 16 108 31 112 34 8 8 30 192 24 198 -3 3 -17
-4 -32 -16 -15 -12 -58 -31 -97 -42 -137 -42 -246 -4 -302 106 -27 54 -30 67
-30 159 0 67 6 120 17 156 41 132 156 253 277 290 83 26 125 25 188 -4 56 -26
63 -23 63 29 0 20 8 26 48 38 50 16 72 20 72 13z m-920 -304 c0 -8 -16 -142
-46 -390 -15 -122 -15 -134 0 -157 21 -33 62 -33 180 0 49 14 92 23 94 20 2
-2 1 -26 -3 -53 l-6 -49 -92 -26 c-131 -38 -177 -43 -215 -23 -18 9 -32 21
-32 26 0 24 -29 7 -60 -35 -41 -54 -64 -71 -138 -96 -72 -25 -164 -25 -219 0
-106 49 -161 228 -119 387 65 243 316 407 477 312 l47 -28 8 47 c8 43 12 47
49 59 48 14 75 17 75 6z"/>
<path d="M3463 3819 c-121 -59 -205 -245 -173 -379 39 -163 214 -173 334 -18
37 47 39 55 53 170 14 111 13 124 -2 165 -31 80 -122 107 -212 62z m170 -101
c19 -26 19 -32 8 -135 -14 -117 -31 -154 -98 -213 -56 -50 -137 -40 -168 20
-47 90 8 258 107 331 56 40 120 39 151 -3z"/>
<path d="M3450 2919 c-74 -21 -167 -55 -207 -74 -177 -87 -232 -258 -116 -367
37 -35 73 -48 135 -48 64 0 164 46 208 97 66 74 111 205 126 366 4 37 3 67 -2
66 -5 0 -70 -18 -144 -40z m94 -141 c-33 -187 -90 -273 -207 -312 -60 -20 -72
-20 -125 4 -69 31 -90 105 -52 179 25 49 70 87 145 122 54 25 213 77 241 78 8
1 7 -20 -2 -71z"/>
<path d="M2524 3511 c-64 -37 -99 -78 -138 -161 -39 -82 -44 -190 -11 -255 61
-121 214 -113 313 17 43 55 44 59 58 175 16 136 9 174 -36 218 -23 22 -41 29
-82 32 -45 3 -61 -1 -104 -26z m150 -61 c44 -16 50 -45 36 -174 l-12 -115 -52
-57 c-45 -50 -56 -57 -99 -61 -54 -6 -80 10 -103 64 -44 103 26 276 135 333
41 22 59 24 95 10z"/>
<path d="M4550 2682 c-66 -32 -98 -128 -65 -191 58 -113 211 -117 265 -7 64
134 -68 265 -200 198z m134 -53 c68 -81 -19 -193 -112 -145 -58 30 -70 94 -26
145 21 26 33 31 69 31 36 0 48 -5 69 -31z"/>
<path d="M6227 2759 c-113 -26 -213 -162 -225 -306 -12 -153 86 -246 219 -207
35 11 59 28 95 67 69 77 71 82 85 213 12 113 11 123 -7 159 -32 66 -90 91
-167 74z m126 -121 c20 -24 21 -42 6 -162 -11 -86 -14 -94 -56 -143 -69 -82
-154 -95 -194 -30 -28 47 -26 147 5 214 58 125 182 188 239 121z"/>
<path d="M6160 1861 c-161 -47 -228 -79 -289 -136 -61 -57 -86 -114 -79 -185
10 -103 83 -165 193 -165 113 0 218 75 271 190 26 57 59 197 67 283 5 64 8 64
-163 13z m114 -118 c-29 -171 -84 -276 -166 -319 -48 -25 -48 -15 4 69 28 45
74 128 101 185 51 106 73 129 61 65z m-85 -55 c-23 -46 -69 -129 -102 -185
-57 -96 -64 -103 -93 -103 -44 0 -97 39 -111 82 -25 76 21 156 120 209 56 30
183 76 215 78 7 1 -4 -32 -29 -81z"/>
<path d="M3235 1913 c-93 -49 -122 -105 -145 -290 -13 -101 -15 -152 -8 -160
14 -17 108 -63 130 -63 35 0 126 41 167 76 136 117 147 376 18 437 -44 21
-123 21 -162 0z m177 -112 c32 -28 33 -32 32 -103 -1 -119 -44 -197 -136 -244
-55 -28 -78 -30 -119 -8 -28 14 -30 19 -25 52 3 20 10 75 16 120 16 123 31
154 95 193 46 29 98 25 137 -10z"/>
<path d="M6313 5020 c-69 -42 -92 -147 -46 -209 51 -67 117 -86 187 -52 107
53 111 212 6 266 -41 21 -109 19 -147 -5z m112 -25 c73 -36 71 -144 -4 -175
-89 -36 -169 69 -110 144 20 25 50 44 72 45 5 1 24 -6 42 -14z"/>
<path d="M7375 3436 c-73 -33 -115 -120 -95 -196 22 -83 104 -138 186 -125 49
7 115 59 134 105 18 43 8 121 -20 160 -42 60 -138 86 -205 56z m142 -38 c113
-69 62 -251 -70 -251 -85 0 -138 53 -139 139 -2 105 117 170 209 112z"/>
<path d="M7374 3376 c-3 -7 -4 -53 -2 -102 2 -71 6 -89 18 -89 10 0 16 13 18
43 4 54 20 54 54 -3 15 -25 34 -45 43 -45 20 0 19 16 -5 55 -20 32 -20 32 0
50 23 21 26 53 8 78 -16 21 -127 31 -134 13z m104 -48 c-2 -18 -11 -24 -35
-26 -30 -3 -33 -1 -33 22 0 23 4 26 36 26 31 0 35 -3 32 -22z"/>
<path d="M820 2588 c0 -4 6 -8 14 -8 8 0 21 -3 30 -6 9 -3 16 -2 16 4 0 5 -13
12 -30 14 -16 3 -30 1 -30 -4z"/>
<path d="M785 2580 c3 -5 11 -10 16 -10 6 0 7 5 4 10 -3 6 -11 10 -16 10 -6 0
-7 -4 -4 -10z"/>
<path d="M7200 2250 c0 -5 7 -10 16 -10 8 0 12 5 9 10 -3 6 -10 10 -16 10 -5
0 -9 -4 -9 -10z"/>
</g>
</svg>
